<?xml version="1.0" encoding="utf-8"?>
<!-- Generator: Adobe Illustrator 25.0.1, SVG Export Plug-In . SVG Version: 6.00 Build 0)  -->
<svg version="1.1" id="Calque_1" xmlns="http://www.w3.org/2000/svg" xmlns:xlink="http://www.w3.org/1999/xlink" x="0px" y="0px"
	 viewBox="0 0 440.4 247.1" style="enable-background:new 0 0 440.4 247.1;" xml:space="preserve">
<style type="text/css">
	.st0{fill:#263238;}
	.st1{fill:#FFFFFF;}
</style>
<g>
	<path class="st0" d="M421.6,247.1H18.8C8.4,247.1,0,238.6,0,228.2V18.8C0,8.4,8.4,0,18.8,0h402.8c10.4,0,18.8,8.4,18.8,18.8v209.4
		C440.4,238.6,432,247.1,421.6,247.1z"/>
	<g>
		<path class="st1" d="M241.3,32v-2.4h14.1V32H241.3z"/>
		<path class="st1" d="M255.4,32v-2.4h14.1V32H255.4z"/>
		<path class="st1" d="M368.5,32v-2.4h14.1V32H368.5z"/>
		<path class="st1" d="M382.6,32v-2.4h14.1V32H382.6z"/>
		<path class="st1" d="M249.7,46.2h-2.6l-0.4-6.2h3.4L249.7,46.2z"/>
		<path class="st1" d="M262.4,53c0.4,0,0.7,0.1,1,0.2c0.3,0.1,0.6,0.3,0.8,0.5s0.4,0.5,0.5,0.8c0.1,0.3,0.2,0.6,0.2,1
			c0,0.3-0.1,0.7-0.2,0.9c-0.1,0.3-0.3,0.6-0.5,0.8c-0.2,0.2-0.5,0.4-0.8,0.5c-0.3,0.1-0.6,0.2-1,0.2c-0.3,0-0.6-0.1-0.9-0.2
			c-0.3-0.1-0.5-0.3-0.8-0.5c-0.2-0.2-0.4-0.5-0.5-0.8c-0.1-0.3-0.2-0.6-0.2-0.9c0-0.3,0.1-0.7,0.2-1c0.1-0.3,0.3-0.6,0.5-0.8
			c0.2-0.2,0.5-0.4,0.8-0.5C261.8,53.1,262.1,53,262.4,53z"/>
		<path class="st1" d="M278,46.2h-2.6l-0.4-6.2h3.4L278,46.2z"/>
		<path class="st1" d="M286.9,52.2v-2.7h7.8v2.7H286.9z"/>
		<path class="st1" d="M301,52.2v-2.7h7.8v2.7H301z"/>
		<path class="st1" d="M318.9,53c0.4,0,0.7,0.1,1,0.2c0.3,0.1,0.6,0.3,0.8,0.5s0.4,0.5,0.5,0.8c0.1,0.3,0.2,0.6,0.2,1
			c0,0.3-0.1,0.7-0.2,0.9c-0.1,0.3-0.3,0.6-0.5,0.8c-0.2,0.2-0.5,0.4-0.8,0.5c-0.3,0.1-0.6,0.2-1,0.2c-0.3,0-0.6-0.1-0.9-0.2
			c-0.3-0.1-0.5-0.3-0.8-0.5c-0.2-0.2-0.4-0.5-0.5-0.8c-0.1-0.3-0.2-0.6-0.2-0.9c0-0.3,0.1-0.7,0.2-1c0.1-0.3,0.3-0.6,0.5-0.8
			c0.2-0.2,0.5-0.4,0.8-0.5C318.3,53.1,318.6,53,318.9,53z"/>
		<path class="st1" d="M329.2,52.2v-2.7h7.8v2.7H329.2z"/>
		<path class="st1" d="M343.4,52.2v-2.7h7.8v2.7H343.4z"/>
		<path class="st1" d="M362.7,46.2h-2.6l-0.4-6.2h3.4L362.7,46.2z"/>
		<path class="st1" d="M375.5,53c0.4,0,0.7,0.1,1,0.2c0.3,0.1,0.6,0.3,0.8,0.5s0.4,0.5,0.5,0.8c0.1,0.3,0.2,0.6,0.2,1
			c0,0.3-0.1,0.7-0.2,0.9c-0.1,0.3-0.3,0.6-0.5,0.8c-0.2,0.2-0.5,0.4-0.8,0.5c-0.3,0.1-0.6,0.2-1,0.2c-0.3,0-0.6-0.1-0.9-0.2
			c-0.3-0.1-0.5-0.3-0.8-0.5c-0.2-0.2-0.4-0.5-0.5-0.8c-0.1-0.3-0.2-0.6-0.2-0.9c0-0.3,0.1-0.7,0.2-1c0.1-0.3,0.3-0.6,0.5-0.8
			c0.2-0.2,0.5-0.4,0.8-0.5C374.8,53.1,375.1,53,375.5,53z"/>
		<path class="st1" d="M385.8,52.2v-2.7h7.8v2.7H385.8z"/>
		<path class="st1" d="M405.1,46.2h-2.6l-0.4-6.2h3.4L405.1,46.2z"/>
		<path class="st1" d="M50.5,83.9c0.4,0,0.7,0.1,1,0.2c0.3,0.1,0.6,0.3,0.8,0.5s0.4,0.5,0.5,0.8c0.1,0.3,0.2,0.6,0.2,1
			c0,0.3-0.1,0.7-0.2,0.9c-0.1,0.3-0.3,0.6-0.5,0.8c-0.2,0.2-0.5,0.4-0.8,0.5c-0.3,0.1-0.6,0.2-1,0.2c-0.3,0-0.6-0.1-0.9-0.2
			c-0.3-0.1-0.5-0.3-0.8-0.5c-0.2-0.2-0.4-0.5-0.5-0.8c-0.1-0.3-0.2-0.6-0.2-0.9c0-0.3,0.1-0.7,0.2-1c0.1-0.3,0.3-0.6,0.5-0.8
			c0.2-0.2,0.5-0.4,0.8-0.5C49.9,83.9,50.2,83.9,50.5,83.9z"/>
		<path class="st1" d="M60.3,90.9c0.5,0,1,0,1.4-0.1c0.4-0.1,0.8-0.2,1.1-0.4s0.6-0.4,0.8-0.6c0.2-0.3,0.3-0.5,0.3-0.9
			c0-0.2,0-0.4-0.1-0.6c-0.1-0.2-0.2-0.3-0.3-0.5s-0.2-0.3-0.3-0.4c-0.1-0.1-0.2-0.3-0.3-0.4c-0.1-0.1-0.2-0.3-0.3-0.5
			c-0.1-0.2-0.1-0.4-0.1-0.7c0-0.3,0-0.5,0.1-0.8c0.1-0.2,0.2-0.5,0.4-0.7s0.4-0.3,0.6-0.5c0.3-0.1,0.5-0.2,0.9-0.2
			c0.4,0,0.8,0.1,1.1,0.3c0.3,0.2,0.6,0.4,0.8,0.8c0.2,0.3,0.4,0.7,0.5,1.1s0.2,0.8,0.2,1.3c0,0.8-0.1,1.5-0.4,2.2
			c-0.3,0.7-0.7,1.3-1.3,1.8s-1.3,0.9-2.1,1.2c-0.8,0.3-1.8,0.4-3,0.4V90.9z"/>
		<path class="st1" d="M71.8,93.6v-2.4h14.1v2.4H71.8z"/>
		<path class="st1" d="M89.1,83v-2.7h7.8V83H89.1z"/>
		<path class="st1" d="M103.2,83v-2.7h7.8V83H103.2z"/>
		<path class="st1" d="M117.3,83v-2.7h7.8V83H117.3z"/>
		<path class="st1" d="M131.5,83v-2.7h7.8V83H131.5z"/>
		<path class="st1" d="M145.6,83v-2.7h7.8V83H145.6z"/>
		<path class="st1" d="M159.7,83v-2.7h7.8V83H159.7z"/>
		<path class="st1" d="M177.7,83.9c0.4,0,0.7,0.1,1,0.2c0.3,0.1,0.6,0.3,0.8,0.5s0.4,0.5,0.5,0.8c0.1,0.3,0.2,0.6,0.2,1
			c0,0.3-0.1,0.7-0.2,0.9c-0.1,0.3-0.3,0.6-0.5,0.8c-0.2,0.2-0.5,0.4-0.8,0.5c-0.3,0.1-0.6,0.2-1,0.2c-0.3,0-0.6-0.1-0.9-0.2
			c-0.3-0.1-0.5-0.3-0.8-0.5c-0.2-0.2-0.4-0.5-0.5-0.8c-0.1-0.3-0.2-0.6-0.2-0.9c0-0.3,0.1-0.7,0.2-1c0.1-0.3,0.3-0.6,0.5-0.8
			c0.2-0.2,0.5-0.4,0.8-0.5C177,83.9,177.3,83.9,177.7,83.9z"/>
		<path class="st1" d="M184.8,93.6v-2.4h14.1v2.4H184.8z"/>
		<path class="st1" d="M198.9,93.6v-2.4h14.1v2.4H198.9z"/>
		<path class="st1" d="M213.1,93.6v-2.4h14.1v2.4H213.1z"/>
		<path class="st1" d="M229.8,90.9c0.5,0,1,0,1.4-0.1c0.4-0.1,0.8-0.2,1.1-0.4s0.6-0.4,0.8-0.6c0.2-0.3,0.3-0.5,0.3-0.9
			c0-0.2,0-0.4-0.1-0.6c-0.1-0.2-0.2-0.3-0.3-0.5s-0.2-0.3-0.3-0.4c-0.1-0.1-0.2-0.3-0.3-0.4c-0.1-0.1-0.2-0.3-0.3-0.5
			c-0.1-0.2-0.1-0.4-0.1-0.7c0-0.3,0-0.5,0.1-0.8c0.1-0.2,0.2-0.5,0.4-0.7s0.4-0.3,0.6-0.5c0.3-0.1,0.5-0.2,0.9-0.2
			c0.4,0,0.8,0.1,1.1,0.3c0.3,0.2,0.6,0.4,0.8,0.8c0.2,0.3,0.4,0.7,0.5,1.1s0.2,0.8,0.2,1.3c0,0.8-0.1,1.5-0.4,2.2
			c-0.3,0.7-0.7,1.3-1.3,1.8s-1.3,0.9-2.1,1.2c-0.8,0.3-1.8,0.4-3,0.4V90.9z"/>
		<path class="st1" d="M288.2,70.8l8.8,20.4h-3l-8.8-20.4H288.2z"/>
		<path class="st1" d="M306.2,77h-2.6l-0.4-6.2h3.4L306.2,77z"/>
		<path class="st1" d="M336,80.7c0-0.5,0-0.9-0.1-1.2c-0.1-0.3-0.2-0.6-0.3-0.8c-0.1-0.2-0.3-0.4-0.5-0.5s-0.4-0.2-0.7-0.2
			c-0.5,0-0.9,0.2-1.4,0.6c-0.5,0.4-1,1-1.6,1.8v8.1h-3.1V75.7h2.8l0.1,1.9c0.2-0.3,0.4-0.6,0.7-0.9c0.3-0.3,0.6-0.5,0.9-0.7
			c0.3-0.2,0.7-0.3,1.1-0.4c0.4-0.1,0.8-0.2,1.3-0.2c0.6,0,1.2,0.1,1.7,0.3s0.9,0.5,1.3,1c0.3,0.4,0.6,1,0.8,1.6
			c0.2,0.7,0.2,1.4,0.2,2.3H336z"/>
		<path class="st1" d="M348.6,77H346l-0.4-6.2h3.4L348.6,77z"/>
		<path class="st1" d="M51.9,107.8h-2.6l-0.4-6.2h3.4L51.9,107.8z"/>
		<path class="st1" d="M60.3,121.7c0.5,0,1,0,1.4-0.1c0.4-0.1,0.8-0.2,1.1-0.4s0.6-0.4,0.8-0.6c0.2-0.3,0.3-0.5,0.3-0.9
			c0-0.2,0-0.4-0.1-0.6c-0.1-0.2-0.2-0.3-0.3-0.5s-0.2-0.3-0.3-0.4c-0.1-0.1-0.2-0.3-0.3-0.4c-0.1-0.1-0.2-0.3-0.3-0.5
			c-0.1-0.2-0.1-0.4-0.1-0.7c0-0.3,0-0.5,0.1-0.8c0.1-0.2,0.2-0.5,0.4-0.7s0.4-0.3,0.6-0.5c0.3-0.1,0.5-0.2,0.9-0.2
			c0.4,0,0.8,0.1,1.1,0.3c0.3,0.2,0.6,0.4,0.8,0.8c0.2,0.3,0.4,0.7,0.5,1.1s0.2,0.8,0.2,1.3c0,0.8-0.1,1.5-0.4,2.2
			c-0.3,0.7-0.7,1.3-1.3,1.8s-1.3,0.9-2.1,1.2c-0.8,0.3-1.8,0.4-3,0.4V121.7z"/>
		<path class="st1" d="M94.3,107.8h-2.6l-0.4-6.2h3.4L94.3,107.8z"/>
		<path class="st1" d="M103.2,113.9v-2.7h7.8v2.7H103.2z"/>
		<path class="st1" d="M121.2,114.7c0.4,0,0.7,0.1,1,0.2c0.3,0.1,0.6,0.3,0.8,0.5s0.4,0.5,0.5,0.8c0.1,0.3,0.2,0.6,0.2,1
			c0,0.3-0.1,0.7-0.2,0.9c-0.1,0.3-0.3,0.6-0.5,0.8c-0.2,0.2-0.5,0.4-0.8,0.5c-0.3,0.1-0.6,0.2-1,0.2c-0.3,0-0.6-0.1-0.9-0.2
			c-0.3-0.1-0.5-0.3-0.8-0.5c-0.2-0.2-0.4-0.5-0.5-0.8c-0.1-0.3-0.2-0.6-0.2-0.9c0-0.3,0.1-0.7,0.2-1c0.1-0.3,0.3-0.6,0.5-0.8
			c0.2-0.2,0.5-0.4,0.8-0.5C120.5,114.8,120.8,114.7,121.2,114.7z"/>
		<path class="st1" d="M128.3,124.5V122h14.1v2.4H128.3z"/>
		<path class="st1" d="M152.2,119.3l-0.1-1.7c-0.3,0.3-0.5,0.5-0.8,0.8c-0.3,0.2-0.6,0.4-1,0.6c-0.4,0.2-0.7,0.3-1.1,0.4
			c-0.4,0.1-0.9,0.1-1.4,0.1c-0.7,0-1.2-0.1-1.7-0.3s-0.9-0.5-1.2-0.8c-0.3-0.3-0.6-0.8-0.8-1.2c-0.2-0.5-0.3-1-0.3-1.6
			c0-0.6,0.1-1.2,0.4-1.7c0.3-0.5,0.6-0.9,1.2-1.3s1.2-0.7,2-0.9c0.8-0.2,1.7-0.3,2.8-0.3h1.7v-0.8c0-0.3,0-0.6-0.1-0.9
			c-0.1-0.3-0.2-0.5-0.4-0.7c-0.2-0.2-0.5-0.3-0.8-0.4c-0.3-0.1-0.7-0.2-1.2-0.2c-0.8,0-1.5,0.1-2.2,0.3s-1.4,0.4-2.1,0.7v-2.4
			c0.6-0.2,1.3-0.4,2.1-0.6c0.8-0.2,1.6-0.2,2.5-0.2c0.9,0,1.8,0.1,2.4,0.3c0.7,0.2,1.2,0.4,1.7,0.8c0.4,0.4,0.8,0.8,1,1.3
			s0.3,1.2,0.3,1.9v8.7H152.2z M151.7,113.7h-1.9c-0.5,0-1,0-1.3,0.2c-0.4,0.1-0.7,0.2-0.9,0.4c-0.2,0.2-0.4,0.4-0.5,0.6
			c-0.1,0.2-0.2,0.5-0.2,0.7c0,0.5,0.2,0.9,0.5,1.2c0.3,0.3,0.8,0.4,1.4,0.4c0.4,0,0.9-0.2,1.3-0.5s1-0.8,1.5-1.3V113.7z"/>
		<path class="st1" d="M249.7,107.8h-2.6l-0.4-6.2h3.4L249.7,107.8z"/>
		<path class="st1" d="M258.6,113.9v-2.7h7.8v2.7H258.6z"/>
		<path class="st1" d="M278,107.8h-2.6l-0.4-6.2h3.4L278,107.8z"/>
		<path class="st1" d="M304.8,114.7c0.4,0,0.7,0.1,1,0.2c0.3,0.1,0.6,0.3,0.8,0.5s0.4,0.5,0.5,0.8c0.1,0.3,0.2,0.6,0.2,1
			c0,0.3-0.1,0.7-0.2,0.9c-0.1,0.3-0.3,0.6-0.5,0.8c-0.2,0.2-0.5,0.4-0.8,0.5c-0.3,0.1-0.6,0.2-1,0.2c-0.3,0-0.6-0.1-0.9-0.2
			c-0.3-0.1-0.5-0.3-0.8-0.5c-0.2-0.2-0.4-0.5-0.5-0.8c-0.1-0.3-0.2-0.6-0.2-0.9c0-0.3,0.1-0.7,0.2-1c0.1-0.3,0.3-0.6,0.5-0.8
			c0.2-0.2,0.5-0.4,0.8-0.5C304.2,114.8,304.5,114.7,304.8,114.7z"/>
		<path class="st1" d="M320.3,107.8h-2.6l-0.4-6.2h3.4L320.3,107.8z"/>
		<path class="st1" d="M66,138.7h-2.6l-0.4-6.2h3.4L66,138.7z"/>
		<path class="st1" d="M78.8,145.5c0.4,0,0.7,0.1,1,0.2c0.3,0.1,0.6,0.3,0.8,0.5s0.4,0.5,0.5,0.8c0.1,0.3,0.2,0.6,0.2,1
			c0,0.3-0.1,0.7-0.2,0.9c-0.1,0.3-0.3,0.6-0.5,0.8c-0.2,0.2-0.5,0.4-0.8,0.5c-0.3,0.1-0.6,0.2-1,0.2c-0.3,0-0.6-0.1-0.9-0.2
			c-0.3-0.1-0.5-0.3-0.8-0.5c-0.2-0.2-0.4-0.5-0.5-0.8c-0.1-0.3-0.2-0.6-0.2-0.9c0-0.3,0.1-0.7,0.2-1c0.1-0.3,0.3-0.6,0.5-0.8
			c0.2-0.2,0.5-0.4,0.8-0.5C78.1,145.6,78.4,145.5,78.8,145.5z"/>
		<path class="st1" d="M150.8,138.7h-2.6l-0.4-6.2h3.4L150.8,138.7z"/>
		<path class="st1" d="M159.7,144.7V142h7.8v2.7H159.7z"/>
		<path class="st1" d="M179.1,138.7h-2.6l-0.4-6.2h3.4L179.1,138.7z"/>
		<path class="st1" d="M193.4,144.4v5.8h-3.1v-5.8l-5.3-10.6h3.4l2.4,5.1l1.1,2.5l1.1-2.6l2.5-5h3.3L193.4,144.4z"/>
		<path class="st1" d="M217.5,132.4l8.8,20.4h-3l-8.8-20.4H217.5z"/>
		<path class="st1" d="M234.2,145.5c0.4,0,0.7,0.1,1,0.2c0.3,0.1,0.6,0.3,0.8,0.5s0.4,0.5,0.5,0.8c0.1,0.3,0.2,0.6,0.2,1
			c0,0.3-0.1,0.7-0.2,0.9c-0.1,0.3-0.3,0.6-0.5,0.8c-0.2,0.2-0.5,0.4-0.8,0.5c-0.3,0.1-0.6,0.2-1,0.2c-0.3,0-0.6-0.1-0.9-0.2
			c-0.3-0.1-0.5-0.3-0.8-0.5c-0.2-0.2-0.4-0.5-0.5-0.8c-0.1-0.3-0.2-0.6-0.2-0.9c0-0.3,0.1-0.7,0.2-1c0.1-0.3,0.3-0.6,0.5-0.8
			c0.2-0.2,0.5-0.4,0.8-0.5C233.5,145.6,233.8,145.5,234.2,145.5z"/>
		<path class="st1" d="M241.3,155.3v-2.4h14.1v2.4H241.3z"/>
		<path class="st1" d="M287.6,152.9h-3l8.8-20.4h3L287.6,152.9z"/>
		<path class="st1" d="M94.3,169.5h-2.6l-0.4-6.2h3.4L94.3,169.5z"/>
		<path class="st1" d="M103.2,175.5v-2.7h7.8v2.7H103.2z"/>
		<path class="st1" d="M117.3,175.5v-2.7h7.8v2.7H117.3z"/>
		<path class="st1" d="M131.1,183.4c0.5,0,1,0,1.4-0.1c0.4-0.1,0.8-0.2,1.1-0.4c0.3-0.2,0.6-0.4,0.8-0.6s0.3-0.5,0.3-0.9
			c0-0.2,0-0.4-0.1-0.6c-0.1-0.2-0.2-0.3-0.3-0.5c-0.1-0.1-0.2-0.3-0.3-0.4c-0.1-0.1-0.2-0.3-0.3-0.4s-0.2-0.3-0.3-0.5
			c-0.1-0.2-0.1-0.4-0.1-0.7c0-0.3,0-0.5,0.1-0.8c0.1-0.2,0.2-0.5,0.4-0.7c0.2-0.2,0.4-0.3,0.6-0.5c0.3-0.1,0.5-0.2,0.9-0.2
			c0.4,0,0.8,0.1,1.1,0.3c0.3,0.2,0.6,0.4,0.8,0.8c0.2,0.3,0.4,0.7,0.5,1.1s0.2,0.8,0.2,1.3c0,0.8-0.1,1.5-0.4,2.2
			c-0.3,0.7-0.7,1.3-1.3,1.8c-0.6,0.5-1.3,0.9-2.1,1.2c-0.9,0.3-1.8,0.4-3,0.4V183.4z M135.4,168.1c0.3,0,0.6,0.1,0.9,0.2
			s0.5,0.3,0.7,0.5c0.2,0.2,0.4,0.4,0.5,0.7c0.1,0.3,0.2,0.6,0.2,0.9c0,0.3-0.1,0.6-0.2,0.9c-0.1,0.3-0.3,0.5-0.5,0.7
			c-0.2,0.2-0.4,0.4-0.7,0.5s-0.6,0.2-0.9,0.2s-0.6-0.1-0.9-0.2s-0.5-0.3-0.7-0.5c-0.2-0.2-0.4-0.4-0.5-0.7
			c-0.1-0.3-0.2-0.6-0.2-0.9c0-0.3,0.1-0.6,0.2-0.9c0.1-0.3,0.3-0.5,0.5-0.7c0.2-0.2,0.4-0.4,0.7-0.5S135,168.1,135.4,168.1z"/>
		<path class="st1" d="M142.4,186.1v-2.4h14.1v2.4H142.4z"/>
		<path class="st1" d="M156.6,186.1v-2.4h14.1v2.4H156.6z"/>
		<path class="st1" d="M170.7,186.1v-2.4h14.1v2.4H170.7z"/>
		<path class="st1" d="M184.8,186.1v-2.4h14.1v2.4H184.8z"/>
		<path class="st1" d="M207.3,169.5h-2.6l-0.4-6.2h3.4L207.3,169.5z"/>
		<path class="st1" d="M216.2,175.5v-2.7h7.8v2.7H216.2z"/>
		<path class="st1" d="M230.4,175.5v-2.7h7.8v2.7H230.4z"/>
		<path class="st1" d="M248.3,176.4c0.4,0,0.7,0.1,1,0.2c0.3,0.1,0.6,0.3,0.8,0.5s0.4,0.5,0.5,0.8c0.1,0.3,0.2,0.6,0.2,1
			c0,0.3-0.1,0.7-0.2,0.9c-0.1,0.3-0.3,0.6-0.5,0.8c-0.2,0.2-0.5,0.4-0.8,0.5c-0.3,0.1-0.6,0.2-1,0.2c-0.3,0-0.6-0.1-0.9-0.2
			c-0.3-0.1-0.5-0.3-0.8-0.5c-0.2-0.2-0.4-0.5-0.5-0.8c-0.1-0.3-0.2-0.6-0.2-0.9c0-0.3,0.1-0.7,0.2-1c0.1-0.3,0.3-0.6,0.5-0.8
			c0.2-0.2,0.5-0.4,0.8-0.5C247.7,176.4,248,176.4,248.3,176.4z"/>
		<path class="st1" d="M263.8,169.5h-2.6l-0.4-6.2h3.4L263.8,169.5z"/>
		<path class="st1" d="M272.7,175.5v-2.7h7.8v2.7H272.7z"/>
		<path class="st1" d="M286.4,183.4c0.5,0,1,0,1.4-0.1c0.4-0.1,0.8-0.2,1.1-0.4s0.6-0.4,0.8-0.6c0.2-0.3,0.3-0.5,0.3-0.9
			c0-0.2,0-0.4-0.1-0.6c-0.1-0.2-0.2-0.3-0.3-0.5s-0.2-0.3-0.3-0.4c-0.1-0.1-0.2-0.3-0.3-0.4c-0.1-0.1-0.2-0.3-0.3-0.5
			c-0.1-0.2-0.1-0.4-0.1-0.7c0-0.3,0-0.5,0.1-0.8c0.1-0.2,0.2-0.5,0.4-0.7s0.4-0.3,0.6-0.5c0.3-0.1,0.5-0.2,0.9-0.2
			c0.4,0,0.8,0.1,1.1,0.3c0.3,0.2,0.6,0.4,0.8,0.8c0.2,0.3,0.4,0.7,0.5,1.1s0.2,0.8,0.2,1.3c0,0.8-0.1,1.5-0.4,2.2
			c-0.3,0.7-0.7,1.3-1.3,1.8s-1.3,0.9-2.1,1.2c-0.8,0.3-1.8,0.4-3,0.4V183.4z"/>
		<path class="st1" d="M55.8,208.1c0,0.7-0.2,1.3-0.5,1.9c-0.3,0.5-0.7,0.9-1.3,1.3c-0.5,0.3-1.1,0.6-1.8,0.7
			c-0.7,0.1-1.4,0.2-2.1,0.2c-0.9,0-1.8,0-2.5-0.1s-1.5-0.2-2.1-0.4v-2.8c0.8,0.3,1.6,0.6,2.4,0.7c0.8,0.1,1.5,0.2,2.2,0.2
			c0.8,0,1.4-0.1,1.8-0.4c0.4-0.3,0.6-0.6,0.6-1c0-0.2,0-0.4-0.1-0.5c-0.1-0.2-0.2-0.3-0.5-0.5c-0.2-0.1-0.6-0.3-1-0.5
			c-0.4-0.2-1-0.3-1.6-0.5c-0.6-0.2-1.2-0.4-1.6-0.6c-0.5-0.2-0.9-0.5-1.2-0.8c-0.3-0.3-0.5-0.6-0.7-1s-0.2-0.9-0.2-1.4
			c0-0.5,0.1-1,0.4-1.5c0.2-0.5,0.6-0.9,1-1.2c0.5-0.3,1-0.6,1.7-0.8c0.7-0.2,1.5-0.3,2.4-0.3c0.8,0,1.5,0,2.1,0.1
			c0.6,0.1,1.2,0.2,1.6,0.3v2.5c-0.7-0.2-1.4-0.4-2.1-0.5c-0.6-0.1-1.3-0.1-1.9-0.1s-1.1,0.1-1.5,0.3c-0.4,0.2-0.6,0.5-0.6,0.9
			c0,0.2,0,0.4,0.1,0.5c0.1,0.2,0.2,0.3,0.4,0.4c0.2,0.1,0.5,0.3,0.9,0.4s0.9,0.3,1.6,0.5c0.7,0.2,1.4,0.4,1.9,0.7
			c0.5,0.2,0.9,0.5,1.2,0.8c0.3,0.3,0.5,0.6,0.7,1C55.7,207.1,55.8,207.6,55.8,208.1z"/>
		<path class="st1" d="M67,211.8v-8.3c0-1.4-0.5-2.1-1.6-2.1c-0.5,0-1,0.2-1.5,0.6c-0.5,0.4-1,1-1.5,1.7v8.1h-3.1v-12.7h2.6l0.1,1.9
			c0.3-0.3,0.5-0.6,0.8-0.9s0.6-0.5,0.9-0.7c0.3-0.2,0.7-0.3,1.1-0.4c0.4-0.1,0.8-0.2,1.3-0.2c0.7,0,1.2,0.1,1.7,0.3
			c0.5,0.2,0.9,0.5,1.2,0.9c0.3,0.4,0.6,0.9,0.7,1.4s0.2,1.2,0.2,1.8v8.6H67z"/>
		<path class="st1" d="M81.5,211.8l-0.1-1.9c-0.3,0.3-0.5,0.6-0.8,0.9s-0.6,0.5-0.9,0.7c-0.3,0.2-0.7,0.3-1,0.4
			c-0.4,0.1-0.8,0.2-1.2,0.2c-0.8,0-1.4-0.2-2-0.5s-1.1-0.7-1.5-1.3c-0.4-0.6-0.7-1.2-0.9-2c-0.2-0.8-0.3-1.7-0.3-2.7
			c0-1.2,0.2-2.2,0.5-3c0.3-0.9,0.8-1.6,1.4-2.1c0.6-0.6,1.3-1,2.1-1.3c0.8-0.3,1.7-0.4,2.6-0.4c0.3,0,0.6,0,1,0.1
			c0.3,0,0.6,0.1,0.9,0.2v-5h3.1v17.7H81.5z M76,205.6c0,0.7,0,1.3,0.1,1.8c0.1,0.5,0.2,0.9,0.4,1.2c0.2,0.3,0.4,0.5,0.7,0.7
			c0.3,0.1,0.6,0.2,0.9,0.2c0.5,0,1-0.2,1.5-0.6c0.5-0.4,1-1,1.5-1.7v-5.6c-0.2-0.1-0.5-0.2-0.9-0.2s-0.7-0.1-1.1-0.1
			c-0.5,0-0.9,0.1-1.3,0.3s-0.7,0.5-1,0.9c-0.3,0.4-0.5,0.8-0.6,1.3C76,204.3,76,204.9,76,205.6z"/>
		<path class="st1" d="M103.9,214.5h-3l8.8-20.4h3L103.9,214.5z"/>
		<path class="st1" d="M121.2,207.2c0.4,0,0.7,0.1,1,0.2c0.3,0.1,0.6,0.3,0.8,0.5s0.4,0.5,0.5,0.8c0.1,0.3,0.2,0.6,0.2,1
			c0,0.3-0.1,0.7-0.2,0.9c-0.1,0.3-0.3,0.6-0.5,0.8c-0.2,0.2-0.5,0.4-0.8,0.5c-0.3,0.1-0.6,0.2-1,0.2c-0.3,0-0.6-0.1-0.9-0.2
			c-0.3-0.1-0.5-0.3-0.8-0.5c-0.2-0.2-0.4-0.5-0.5-0.8c-0.1-0.3-0.2-0.6-0.2-0.9c0-0.3,0.1-0.7,0.2-1c0.1-0.3,0.3-0.6,0.5-0.8
			c0.2-0.2,0.5-0.4,0.8-0.5C120.5,207.3,120.8,207.2,121.2,207.2z"/>
		<path class="st1" d="M135.3,207.2c0.4,0,0.7,0.1,1,0.2c0.3,0.1,0.6,0.3,0.8,0.5s0.4,0.5,0.5,0.8c0.1,0.3,0.2,0.6,0.2,1
			c0,0.3-0.1,0.7-0.2,0.9c-0.1,0.3-0.3,0.6-0.5,0.8c-0.2,0.2-0.5,0.4-0.8,0.5c-0.3,0.1-0.6,0.2-1,0.2c-0.3,0-0.6-0.1-0.9-0.2
			c-0.3-0.1-0.5-0.3-0.8-0.5c-0.2-0.2-0.4-0.5-0.5-0.8c-0.1-0.3-0.2-0.6-0.2-0.9c0-0.3,0.1-0.7,0.2-1c0.1-0.3,0.3-0.6,0.5-0.8
			c0.2-0.2,0.5-0.4,0.8-0.5C134.6,207.3,135,207.2,135.3,207.2z"/>
		<path class="st1" d="M150.8,200.4h-2.6l-0.4-6.2h3.4L150.8,200.4z"/>
	</g>
</g>
</svg>
